# xmcd CD database file
#
# Track frame offsets:
#	150
#	19920
#	34975
#	50402
#	73032
#	88315
#	106190
#	128572
#	150150
#	166510
#	180755
#	203260
#	221480
#	234745
#
# Disc length: 3418 seconds
#
# Revision: 4
# Processed by: cddbd v1.5.2PL0 Copyright (c) Steve Scherf et al.
# Submitted via: CDex 1.51
#
DISCID=a60d580e
DTITLE=Long John Hunter - Swinging From The Rafters
DYEAR=1997
DGENRE=Blues
TTITLE0=Time And Time Again
TTITLE1=I Don't Care
TTITLE2=Stop What You're Doing
TTITLE3=Both Ends Of The Road
TTITLE4=Bugs On My Window
TTITLE5=Take It Home With You
TTITLE6=Trouble On The Line
TTITLE7=In The Country
TTITLE8=V-8 Ford
TTITLE9=39 Days
TTITLE10=I'm Broke
TTITLE11=Walking Catfish
TTITLE12=Locksmith Man
TTITLE13=Love Prevails
EXTD=Alligator Records YEAR: 1997
EXTT0=
EXTT1=
EXTT2=
EXTT3=
EXTT4=
EXTT5=
EXTT6=
EXTT7=
EXTT8=
EXTT9=
EXTT10=
EXTT11=
EXTT12=
EXTT13=
PLAYORDER=
